# xmcd
#
# Track frame offsets: 
#        150
#        14667
#        34712
#        52672
#        70505
#        93912
#        105627
#        121965
#
# Disc length: 1831 seconds
#
# Revision: 2
# Processed by: cddbd v1.5.2PL0 Copyright (c) Steve Scherf et al.
# Submitted via: ExactAudioCopyFreeDBPlugin 1.0
#
DISCID=59072508
DTITLE=The Dramatics - Whatcha See Is Whatcha Get
DYEAR=1971
DGENRE=Soul
TTITLE0=Get Up And Get Down
TTITLE1=Thank You For Your Love
TTITLE2=Hot Pants In The Summertime
TTITLE3=Whatcha See Is Whatcha Get
TTITLE4=In The Rain
TTITLE5=Gimme Some (Good Soul Music)
TTITLE6=Fall In Love, Lady Love
TTITLE7=Mary Don't Cha Wanna
EXTD=
EXTT0=
EXTT1=
EXTT2=
EXTT3=
EXTT4=
EXTT5=
EXTT6=
EXTT7=
PLAYORDER=
